<?xml version="1.0" encoding="utf-8"?>
<!-- Generator: Adobe Illustrator 24.1.1, SVG Export Plug-In . SVG Version: 6.00 Build 0)  -->
<svg version="1.1" id="Ebene_1" xmlns="http://www.w3.org/2000/svg" xmlns:xlink="http://www.w3.org/1999/xlink" x="0px" y="0px"
	 viewBox="0 0 288 228" style="enable-background:new 0 0 288 228;" xml:space="preserve">
<style type="text/css">
	.st0{fill:#EB423F;}
	.st1{fill:#C3C6C7;}
</style>
<g>
	<path class="st0" d="M174.4,77.1l-20.6,29.6c-1.9,2.7-5.6,3.4-8.4,1.5L116,87.6c-2.7-1.9-3.4-5.6-1.5-8.4c1.9-2.7,5.6-3.4,8.4-1.5
		l24.6,17.1l17.1-24.6c1.9-2.7,5.6-3.4,8.4-1.5C175.7,70.7,176.3,74.4,174.4,77.1L174.4,77.1z M174.4,77.1"/>
	<path class="st1" d="M180,144.6h-72c-3.3,0-6-2.7-6-6c0-3.3,2.7-6,6-6h72c3.3,0,6,2.7,6,6C186,141.9,183.3,144.6,180,144.6
		L180,144.6z M180,144.6"/>
	<path class="st1" d="M216,192.6H84c-3.3,0-6-2.7-6-6s2.7-6,6-6h132c3.3,0,6,2.7,6,6S219.3,192.6,216,192.6L216,192.6z M216,192.6"
		/>
	<path class="st1" d="M228,168.6H60c-3.3,0-6-2.7-6-6s2.7-6,6-6h168c3.3,0,6,2.7,6,6S231.3,168.6,228,168.6L228,168.6z M228,168.6"
		/>
	<path class="st0" d="M166.3,78.3c-2.8-1.8-3.9-5.1-2.4-7.4l21.2-33.4c1.5-2.3,4.9-2.7,7.7-1c2.8,1.8,3.9,5.1,2.4,7.4L174,77.3
		C172.6,79.6,169.1,80,166.3,78.3L166.3,78.3z M166.3,78.3"/>
</g>
</svg>
