<?xml version="1.0" encoding="utf-8"?>
<!-- Generator: Adobe Illustrator 24.1.1, SVG Export Plug-In . SVG Version: 6.00 Build 0)  -->
<svg version="1.1" id="Ebene_1" xmlns="http://www.w3.org/2000/svg" xmlns:xlink="http://www.w3.org/1999/xlink" x="0px" y="0px"
	 viewBox="0 0 288 228" style="enable-background:new 0 0 288 228;" xml:space="preserve">
<style type="text/css">
	.st0{fill:#9AA3A8;}
</style>
<g>
	<g>
		<path class="st0" d="M219.1,143.6h-6.4v-16.9c0-3.5-2.8-6.4-6.4-6.4h-56v-10.5h44.5c3.5,0,6.4-2.8,6.4-6.4V52.6
			c0-3.5-2.8-6.4-6.4-6.4H93.1c-3.5,0-6.4,2.8-6.4,6.4v50.9c0,3.5,2.8,6.4,6.4,6.4h44.5v10.5h-56c-3.5,0-6.4,2.8-6.4,6.4v16.9h-6.4
			c-3.5,0-6.4,2.8-6.4,6.4v25.4c0,3.5,2.8,6.4,6.4,6.4h25.4c3.5,0,6.4-2.8,6.4-6.4v-25.4c0-3.5-2.8-6.4-6.4-6.4H88v-10.5h49.6v10.5
			h-6.4c-3.5,0-6.4,2.8-6.4,6.4v25.4c0,3.5,2.8,6.4,6.4,6.4h25.4c3.5,0,6.4-2.8,6.4-6.4v-25.4c0-3.5-2.8-6.4-6.4-6.4h-6.4v-10.5H200
			v10.5h-6.4c-3.5,0-6.4,2.8-6.4,6.4v25.4c0,3.5,2.8,6.4,6.4,6.4h25.4c3.5,0,6.4-2.8,6.4-6.4v-25.4
			C225.4,146.4,222.6,143.6,219.1,143.6z M88,169H75.3v-12.7H88V169z M150.4,169h-12.7v-12.7h12.7V169z M99.5,97.1V59h89.1v38.2
			H99.5z M212.7,169H200v-12.7h12.7V169z"/>
	</g>
</g>
</svg>
