<?xml version="1.0" encoding="utf-8"?>
<!-- Generator: Adobe Illustrator 24.1.1, SVG Export Plug-In . SVG Version: 6.00 Build 0)  -->
<svg version="1.1" id="Ebene_1" xmlns="http://www.w3.org/2000/svg" xmlns:xlink="http://www.w3.org/1999/xlink" x="0px" y="0px"
	 viewBox="0 0 288 228" style="enable-background:new 0 0 288 228;" xml:space="preserve">
<style type="text/css">
	.st0{fill:#9AA3A8;}
</style>
<path class="st0" d="M150,117.9c0,3.1-1.2,6.1-3.4,8.2l-23.3,23.3c-4.6,4.6-11.9,4.6-16.5,0c-4.6-4.6-4.6-11.9,0-16.5l15.1-15.1
	l-15.1-15.1c-4.6-4.6-4.6-11.9,0-16.5c4.6-4.6,11.9-4.6,16.5,0l23.3,23.3C148.8,111.8,150,114.8,150,117.9L150,117.9z M150,117.9"/>
<path class="st0" d="M137,117.9c0-3.1,1.2-6.1,3.4-8.2l23.3-23.3c4.6-4.6,11.9-4.6,16.5,0c4.6,4.6,4.6,11.9,0,16.5l-15.1,15.1
	l15.1,15.1c4.6,4.6,4.6,11.9,0,16.5c-4.6,4.6-11.9,4.6-16.5,0l-23.3-23.3C138.2,123.9,137,121,137,117.9L137,117.9z M137,117.9"/>
</svg>
